<?xml version="1.0" encoding="utf-8"?>
<!-- Generator: Adobe Illustrator 15.0.0, SVG Export Plug-In . SVG Version: 6.00 Build 0)  -->
<!DOCTYPE svg PUBLIC "-//W3C//DTD SVG 1.0//EN" "http://www.w3.org/TR/2001/REC-SVG-20010904/DTD/svg10.dtd">
<svg version="1.0" id="Layer_1" xmlns="http://www.w3.org/2000/svg" xmlns:xlink="http://www.w3.org/1999/xlink" x="0px" y="0px"
	 width="848.572px" height="117.143px" viewBox="0 0 848.572 117.143" enable-background="new 0 0 848.572 117.143"
	 xml:space="preserve">
<rect x="25.257" y="16.115" width="5.535" height="84.234"/>
<polygon points="69.539,100.35 64.485,100.35 64.485,16.115 71.705,16.115 96.976,87.232 96.976,16.115 102.029,16.115 
	102.029,100.35 95.892,100.35 69.539,25.26 "/>
<g>
	<path d="M153.411,15.393c3.208,0,5.957,0.542,8.244,1.624c2.286,1.084,4.17,2.569,5.656,4.453c1.483,1.886,2.566,4.133,3.249,6.738
		c0.681,2.608,1.023,5.437,1.023,8.484v6.979h-5.295v-7.341c0-2.245-0.221-4.332-0.661-6.257c-0.442-1.926-1.185-3.61-2.227-5.055
		c-1.043-1.444-2.367-2.566-3.971-3.37c-1.605-0.801-3.57-1.203-5.896-1.203c-2.328,0-4.292,0.402-5.896,1.203
		c-1.607,0.804-2.93,1.926-3.972,3.37c-1.043,1.444-1.786,3.129-2.226,5.055c-0.442,1.925-0.662,4.012-0.662,6.257v43.802
		c0,2.247,0.22,4.332,0.662,6.258c0.44,1.925,1.183,3.592,2.226,4.994c1.042,1.404,2.365,2.508,3.972,3.309
		c1.604,0.803,3.568,1.204,5.896,1.204c2.326,0,4.291-0.401,5.896-1.204c1.604-0.801,2.928-1.904,3.971-3.309
		c1.042-1.402,1.785-3.069,2.227-4.994c0.44-1.926,0.661-4.011,0.661-6.258v-9.987h5.295v9.626c0,3.05-0.342,5.878-1.023,8.484
		c-0.682,2.607-1.765,4.855-3.249,6.738c-1.485,1.886-3.37,3.37-5.656,4.453c-2.287,1.082-5.036,1.624-8.244,1.624
		c-3.208,0-5.956-0.542-8.242-1.624c-2.287-1.083-4.172-2.567-5.656-4.453c-1.485-1.883-2.568-4.131-3.249-6.738
		c-0.683-2.606-1.023-5.435-1.023-8.484V36.692c0-3.048,0.34-5.876,1.023-8.484c0.681-2.605,1.764-4.853,3.249-6.738
		c1.484-1.884,3.37-3.369,5.656-4.453C147.455,15.935,150.202,15.393,153.411,15.393"/>
	<path d="M249.227,16.114c6.499,0,11.131,1.866,13.9,5.596c2.767,3.731,4.151,8.686,4.151,14.861v9.146
		c0,6.738-1.564,11.753-4.693,15.041c-3.129,3.291-8.062,4.934-14.801,4.934h-10.469v34.657h-5.536V16.114H249.227z M247.783,60.639
		c4.892,0,8.442-1.144,10.65-3.43c2.205-2.286,3.309-5.995,3.309-11.13v-9.868c0-4.573-0.903-8.223-2.708-10.951
		c-1.804-2.726-5.074-4.091-9.808-4.091h-11.913v39.47H247.783z"/>
	<path d="M305.183,80.013c0,2.247,0.22,4.354,0.662,6.317c0.439,1.967,1.162,3.67,2.166,5.114c1.002,1.444,2.306,2.568,3.911,3.37
		c1.604,0.802,3.568,1.203,5.896,1.203c2.327,0,4.291-0.401,5.896-1.203c1.604-0.802,2.908-1.926,3.911-3.37
		c1.002-1.444,1.725-3.147,2.167-5.114c0.439-1.964,0.661-4.07,0.661-6.317V16.114h5.175v63.657c0,3.05-0.322,5.857-0.962,8.424
		c-0.644,2.569-1.685,4.813-3.129,6.739s-3.31,3.43-5.596,4.513c-2.286,1.082-5.035,1.624-8.242,1.624
		c-3.21,0-5.957-0.542-8.243-1.624c-2.287-1.083-4.151-2.587-5.595-4.513s-2.508-4.17-3.189-6.739
		c-0.682-2.566-1.023-5.374-1.023-8.424V16.114h5.536V80.013z"/>
	<path d="M386.889,16.114c6.336,0,10.789,1.525,13.357,4.573c2.566,3.05,3.852,7.502,3.852,13.357v4.812
		c0,4.573-0.782,8.265-2.347,11.072c-1.564,2.809-4.473,4.652-8.725,5.535c4.573,0.883,7.822,2.908,9.748,6.076
		c1.925,3.171,2.888,7.16,2.888,11.974v7.341c0,6.097-1.444,10.871-4.333,14.319c-2.888,3.45-7.582,5.175-14.079,5.175h-18.051
		V16.114H386.889z M384.121,53.298c2.486,0,4.633-0.198,6.438-0.601c1.805-0.401,3.309-1.103,4.512-2.106
		c1.204-1.003,2.085-2.365,2.647-4.091c0.561-1.725,0.842-3.911,0.842-6.559v-5.415c0-4.411-0.842-7.741-2.526-9.988
		c-1.685-2.245-4.774-3.369-9.266-3.369h-12.034v32.129H384.121z M387.25,95.295c4.651,0,7.96-1.243,9.927-3.73
		c1.965-2.485,2.948-6.096,2.948-10.829v-7.582c0-5.454-1.245-9.284-3.73-11.491c-2.487-2.206-6.218-3.31-11.191-3.31h-10.469
		v36.942H387.25z"/>
	<polygon points="438.751,100.35 438.751,16.115 444.287,16.115 444.287,95.295 470.76,95.295 470.76,100.35 	"/>
	<rect x="503.129" y="16.115" width="5.535" height="84.234"/>
	<path d="M559.927,15.393c3.207,0,5.935,0.523,8.183,1.564c2.244,1.043,4.091,2.509,5.534,4.392c1.444,1.887,2.508,4.113,3.189,6.68
		c0.682,2.567,1.023,5.375,1.023,8.423v1.806h-5.295V36.09c0-2.244-0.222-4.311-0.663-6.197c-0.44-1.883-1.163-3.528-2.165-4.933
		c-1.005-1.403-2.308-2.507-3.91-3.311c-1.606-0.801-3.531-1.203-5.776-1.203c-4.574,0-7.803,1.465-9.688,4.393
		c-1.886,2.93-2.827,6.64-2.827,11.132c0,3.449,0.741,6.377,2.226,8.783c1.483,2.408,3.369,4.595,5.656,6.559
		c2.286,1.967,4.732,3.851,7.34,5.656c2.606,1.805,5.055,3.772,7.341,5.896c2.286,2.127,4.169,4.554,5.655,7.28
		c1.484,2.728,2.226,6.017,2.226,9.867c0,3.05-0.341,5.856-1.022,8.423c-0.683,2.569-1.766,4.795-3.249,6.68
		c-1.485,1.886-3.368,3.35-5.655,4.392c-2.286,1.042-5.036,1.564-8.244,1.564c-3.208,0-5.956-0.522-8.243-1.564
		c-2.286-1.042-4.172-2.506-5.655-4.392c-1.485-1.885-2.568-4.11-3.249-6.68c-0.683-2.566-1.023-5.373-1.023-8.423v-4.332h5.294
		v4.693c0,4.493,0.962,8.203,2.888,11.131c1.925,2.93,5.214,4.393,9.867,4.393c4.652,0,7.941-1.463,9.867-4.393
		c1.926-2.928,2.889-6.638,2.889-11.131c0-3.37-0.743-6.258-2.228-8.664c-1.485-2.407-3.368-4.592-5.654-6.559
		c-2.286-1.966-4.735-3.83-7.341-5.596c-2.608-1.764-5.054-3.71-7.341-5.836c-2.286-2.125-4.172-4.572-5.656-7.34
		c-1.485-2.769-2.226-6.117-2.226-10.049c0-6.336,1.424-11.391,4.272-15.162C549.116,17.399,553.669,15.474,559.927,15.393"/>
	<polygon points="616.483,60.759 616.483,100.35 610.948,100.35 610.948,16.115 616.483,16.115 616.483,55.705 642.716,55.705 
		642.716,16.115 648.372,16.115 648.372,100.35 642.716,100.35 642.716,60.759 	"/>
	<rect x="682.065" y="16.115" width="5.535" height="84.234"/>
	<polygon points="726.347,100.35 721.292,100.35 721.292,16.115 728.512,16.115 753.783,87.232 753.783,16.115 758.837,16.115 
		758.837,100.35 752.7,100.35 726.347,25.26 	"/>
	<path d="M810.219,15.393c3.208,0,5.956,0.542,8.242,1.624c2.287,1.084,4.172,2.569,5.657,4.453
		c1.483,1.886,2.566,4.133,3.248,6.738c0.681,2.608,1.023,5.437,1.023,8.484v6.258h-5.296v-6.619c0-2.245-0.222-4.332-0.661-6.257
		c-0.441-1.926-1.185-3.61-2.227-5.055c-1.043-1.444-2.366-2.566-3.97-3.37c-1.606-0.801-3.571-1.203-5.897-1.203
		c-2.327,0-4.292,0.402-5.896,1.203c-1.605,0.804-2.929,1.926-3.971,3.37c-1.043,1.444-1.786,3.129-2.227,5.055
		c-0.441,1.925-0.661,4.012-0.661,6.257v43.802c0,2.247,0.22,4.332,0.661,6.258c0.44,1.925,1.184,3.592,2.227,4.994
		c1.042,1.404,2.365,2.508,3.971,3.309c1.604,0.803,3.569,1.204,5.896,1.204c2.326,0,4.291-0.401,5.897-1.204
		c1.604-0.801,2.927-1.904,3.97-3.309c1.042-1.402,1.785-3.069,2.227-4.994c0.439-1.926,0.661-4.011,0.661-6.258v-18.17h-11.19
		v-5.054h16.486v22.862c0,3.05-0.343,5.878-1.023,8.484c-0.682,2.607-1.765,4.855-3.248,6.738c-1.485,1.886-3.37,3.37-5.657,4.453
		c-2.286,1.082-5.034,1.624-8.242,1.624c-3.21,0-5.956-0.542-8.243-1.624c-2.286-1.083-4.172-2.567-5.655-4.453
		c-1.486-1.883-2.568-4.131-3.249-6.738c-0.683-2.606-1.022-5.435-1.022-8.484V36.692c0-3.048,0.34-5.876,1.022-8.484
		c0.681-2.605,1.763-4.853,3.249-6.738c1.483-1.884,3.369-3.369,5.655-4.453C804.263,15.935,807.009,15.393,810.219,15.393"/>
	<path d="M204.907,96c0,2.801-2.27,5.071-5.071,5.071s-5.072-2.271-5.072-5.071s5.072-11.361,5.072-11.361
		S204.907,93.199,204.907,96"/>
</g>
</svg>
